<?xml version="1.0" encoding="iso-8859-1"?>
<!-- Uploaded to: SVG Repo, www.svgrepo.com, Generator: SVG Repo Mixer Tools -->
<svg height="800px" width="800px" version="1.1" id="Layer_1" xmlns="http://www.w3.org/2000/svg" xmlns:xlink="http://www.w3.org/1999/xlink" 
	 viewBox="0 0 512.001 512.001" xml:space="preserve">
<path style="fill:#EAA0E3;" d="M273.256,46.544C251.46,25.514,223.969,11.933,193.3,9.285
	C113.169,2.365,41.651,72.753,33.578,166.477C25.493,260.214,83.9,341.793,164.032,348.701c28.068,2.424,55.088-4.649,78.684-18.877
	"/>
<path style="fill:#D57CD4;" d="M85.212,166.477C92.024,87.402,143.995,24.94,208.199,11.5c-4.876-1.017-9.838-1.778-14.899-2.216
	C113.169,2.364,41.651,72.752,33.578,166.476C25.493,260.212,83.9,341.792,164.032,348.7c12.489,1.079,24.768,0.267,36.633-2.209
	C128.381,331.372,77.641,254.256,85.212,166.477z"/>
<path style="fill:#EC589B;" d="M296.207,375.731l-11.628-22.802l-22.802,11.628c-12.592,6.422-17.595,21.836-11.173,34.43l0,0
	c6.422,12.592,21.836,17.595,34.43,11.173l0,0C297.626,403.739,302.629,388.324,296.207,375.731z"/>
<path style="fill:#EAA0E3;" d="M180.506,368.287l-16.476-19.586l-19.586,16.477c-10.818,9.099-12.21,25.246-3.109,36.063l0,0
	c9.099,10.818,25.246,12.21,36.063,3.109l0,0C188.214,395.251,189.606,379.105,180.506,368.287z"/>
<ellipse transform="matrix(0.3087 -0.9512 0.9512 0.3087 51.4818 452.6812)" style="fill:#EC589B;" cx="337.159" cy="190.924" rx="170.344" ry="145.629"/>
<path style="fill:#D3468D;" d="M330.473,352.929c-76.5-24.826-114.975-117.492-85.936-206.974
	c21.262-65.519,72.826-111.158,128.946-121.163c-72.002-13.163-147.844,37.973-174.841,121.163
	c-29.039,89.482,9.436,182.148,85.936,206.974c20.487,6.649,41.623,7.752,62.151,4.093
	C341.28,356.027,335.854,354.676,330.473,352.929z"/>
<ellipse style="fill:#F47BB7;" cx="421.937" cy="102.715" rx="17.747" ry="21.122"/>
<path d="M480.437,104.742c-17.236-41.515-48.479-71.435-87.972-84.252c-38.628-12.536-80.474-7.18-118.155,15.032
	c-23.097-20.396-50.7-32.479-80.248-35.03c-24.433-2.109-49.338,2.593-72.021,13.597c-4.386,2.128-6.216,7.408-4.088,11.793
	c2.128,4.386,7.407,6.215,11.793,4.088c20.103-9.753,41.23-13.754,62.797-11.892c24.214,2.091,46.993,11.576,66.469,27.582
	c-31.614,23.411-55.769,57.53-68.763,97.57c-14.693,45.277-13.403,92.809,3.634,133.842c8.231,19.823,19.662,36.994,33.652,50.931
	c-19.896,9.634-41.36,13.749-62.743,11.903c-36.142-3.115-68.776-22.611-91.89-54.895c-23.417-32.708-34.258-74.535-30.529-117.777
	c4.41-51.19,28.42-96.457,65.874-124.199c3.918-2.901,4.74-8.429,1.839-12.346c-2.901-3.918-8.429-4.74-12.346-1.839
	C56.22,59.601,29.629,109.488,24.785,165.717c-4.091,47.428,7.899,93.443,33.763,129.569c21.947,30.656,51.656,51.134,85.075,59.047
	l-4.86,4.09c-7.036,5.918-11.346,14.223-12.136,23.384s2.035,18.08,7.953,25.116c6.799,8.083,16.551,12.248,26.369,12.248
	c7.824,0,15.69-2.647,22.132-8.066c7.036-5.918,11.346-14.223,12.136-23.384s-2.035-18.08-7.953-25.115l-4.11-4.885
	c20.261-1.256,40.194-7.092,58.72-17.248c6.757,5.108,13.959,9.57,21.554,13.337l-5.658,2.886
	c-8.191,4.177-14.265,11.293-17.103,20.039c-2.839,8.745-2.101,18.072,2.077,26.263c4.177,8.191,11.293,14.265,20.039,17.103
	c3.498,1.134,7.087,1.698,10.661,1.698c5.362,0,10.687-1.269,15.602-3.774c8.191-4.177,14.265-11.294,17.103-20.039
	c2.839-8.745,2.101-18.072-2.077-26.263l-2.919-5.722c7.332,1.212,14.757,1.832,22.219,1.832c28.509,0,57.512-8.779,83.506-25.797
	c4.078-2.67,5.221-8.14,2.55-12.219c-2.669-4.079-8.14-5.221-12.219-2.55c-34.861,22.823-73.893,28.954-109.905,17.267
	c-34.504-11.198-61.893-37.56-77.118-74.231c-15.425-37.151-16.543-80.345-3.147-121.624c2.36-7.269,5.126-14.319,8.257-21.121
	l11.578,29.973c0.957,2.478,2.981,4.394,5.509,5.216c2.528,0.821,5.29,0.458,7.521-0.986l29.462-19.072l-15.356,47.319
	c-1.504,4.637,1.034,9.615,5.671,11.12c0.905,0.294,1.823,0.433,2.726,0.433c3.722,0,7.184-2.373,8.393-6.104l23.027-70.957
	c1.153-3.554-0.055-7.448-3.019-9.724c-2.963-2.276-7.036-2.44-10.174-0.41l-41.209,26.676l-13.117-33.958
	c14.101-22.669,32.749-41.558,54.694-55.003c33.857-20.742,71.503-26,106.012-14.8c34.504,11.198,61.892,37.56,77.118,74.23
	c9.868,23.767,13.869,50.007,11.973,76.637l-30.558,19.785l-17.692-45.791c-1.346-3.485-4.732-5.755-8.476-5.642
	c-3.734,0.102-7,2.546-8.153,6.098L388.2,233.554c-1.504,4.637,1.034,9.615,5.671,11.12c0.905,0.294,1.823,0.433,2.726,0.433
	c3.722,0,7.184-2.373,8.393-6.104l15.356-47.318l12.649,32.738c0.958,2.478,2.982,4.394,5.509,5.215
	c2.529,0.82,5.292,0.458,7.521-0.986l26.973-17.464c-1.46,7.346-3.36,14.677-5.718,21.947
	c-9.649,29.732-26.223,56.237-47.931,76.652c-3.551,3.339-3.722,8.925-0.383,12.477c3.338,3.551,8.924,3.722,12.477,0.382
	c23.865-22.444,42.064-51.512,52.628-84.063C498.764,193.307,497.474,145.774,480.437,104.742z M177.627,386.205
	c-0.385,4.463-2.484,8.507-5.913,11.392c-7.076,5.951-17.675,5.038-23.628-2.037c-2.883-3.428-4.259-7.773-3.874-12.236
	c0.385-4.463,2.484-8.507,5.913-11.392l12.832-10.794l10.795,12.832C176.636,377.397,178.011,381.742,177.627,386.205z
	 M289.355,392.536c-1.383,4.26-4.341,7.727-8.332,9.762c-3.99,2.035-8.532,2.395-12.795,1.011c-4.26-1.383-7.727-4.341-9.762-8.332
	s-2.394-8.533-1.011-12.795c1.383-4.261,4.341-7.727,8.332-9.762l14.939-7.618l7.618,14.938
	C290.378,383.731,290.738,388.275,289.355,392.536z"/>
<path d="M371.057,144.537c-6.544-2.123-13.42-1.285-19.413,1.808c-3.125-6.193-8.385-10.828-14.695-12.876
	c-8.198-2.66-17.013-1.473-24.819,3.343c-7.344,4.532-12.943,11.816-15.764,20.508c-3.314,10.214-1.651,22.146,4.943,35.467
	c4.936,9.97,12.57,20.387,21.498,29.331c1.669,1.672,3.922,2.591,6.247,2.591c0.464,0,0.931-0.036,1.396-0.111
	c12.478-1.998,24.774-5.947,34.624-11.119c13.16-6.91,21.513-15.592,24.828-25.806C395.894,169.205,387.441,149.854,371.057,144.537
	z M373.109,182.225c-2.748,8.466-16.668,19.299-40.967,24.138c-16.828-18.186-21.733-35.129-18.985-43.595
	c1.53-4.714,4.458-8.598,8.243-10.934c2.234-1.378,4.586-2.083,6.856-2.083c1.109,0,2.197,0.168,3.243,0.507
	c2.767,0.898,4.14,3.366,4.712,4.757c1.177,2.862,1.233,6.41,0.154,9.736c-0.294,0.905-0.433,1.824-0.433,2.727
	c0,3.721,2.374,7.182,6.104,8.392c4.641,1.504,9.616-1.034,11.12-5.67c2.055-6.334,7.755-10.399,12.451-8.875
	C372.613,163.601,376.048,173.171,373.109,182.225z"/>
<path d="M322.016,381.053c-4.074,2.659-5.223,8.124-2.575,12.206c0.14,0.215,13.862,21.695,7.255,39.618
	c-3.819,10.357-14.121,18.096-30.622,23.002c-23.098,6.867-55.434,5.734-86.709,4.637c-27.815-0.976-54.088-1.897-75.479,2.303
	c-26.373,5.177-41.588,18.239-45.219,38.821c-0.847,4.8,2.357,9.378,7.159,10.226c0.519,0.092,1.034,0.137,1.544,0.137
	c4.203,0,7.926-3.013,8.682-7.294c4.92-27.878,43.855-28.614,102.697-26.55c32.691,1.146,66.494,2.331,92.358-5.358
	c22.178-6.594,36.374-18.008,42.195-33.929c9.617-26.304-8.319-54.107-9.088-55.278C331.543,379.524,326.09,378.395,322.016,381.053
	z"/>
<path d="M214.267,416.696c0.485-4.851-3.054-9.176-7.905-9.661c-4.851-0.488-9.176,3.054-9.661,7.905
	c-0.001,0.02-1.164,2.71-5.003,5.554c-6.18,4.578-19.422,10.035-47.411,10.035c-61.096,0-126.512,23.408-126.512,58.254
	c0,4.875,3.952,8.826,8.826,8.826s8.826-3.952,8.826-8.826c0-18.277,50.233-40.601,108.859-40.601
	C209.243,448.181,213.945,419.919,214.267,416.696z"/>
</svg>