<!DOCTYPE svg PUBLIC "-//W3C//DTD SVG 1.1//EN" "http://www.w3.org/Graphics/SVG/1.1/DTD/svg11.dtd">
<!-- Uploaded to: SVG Repo, www.svgrepo.com, Transformed by: SVG Repo Mixer Tools -->
<svg height="800px" width="800px" version="1.1" id="Layer_1" xmlns="http://www.w3.org/2000/svg" xmlns:xlink="http://www.w3.org/1999/xlink" viewBox="0 0 392.508 392.508" xml:space="preserve" fill="#000000">
<g id="SVGRepo_bgCarrier" stroke-width="0"/>
<g id="SVGRepo_tracerCarrier" stroke-linecap="round" stroke-linejoin="round"/>
<g id="SVGRepo_iconCarrier"> <path style="fill:#cb0b0b;" d="M135.713,299.554c0-12.8-10.408-23.273-23.273-23.273c-7.887,0-15.127,3.943-19.459,10.537 c-4.331,6.723-13.77,6.465-18.23,0c-4.331-6.594-11.572-10.537-19.459-10.537c-12.8,0-23.273,10.408-23.273,23.273 c0,15.709,28.251,46.998,51.782,67.749C107.333,346.229,135.713,314.746,135.713,299.554z"/> <path style="fill:#d11515;" d="M360.488,252.75c0-12.8-10.408-23.273-23.273-23.273c-7.887,0-15.127,3.943-19.459,10.537 c-4.59,6.594-13.834,6.788-18.23,0c-4.331-6.594-11.572-10.537-19.459-10.537c-12.8,0-23.273,10.408-23.273,23.273 c0,15.709,28.25,46.998,51.782,67.749C332.109,299.425,360.488,267.877,360.488,252.75z"/> <polygon style="fill:#db0606;" points="157.498,122.423 360.488,73.227 360.488,24.677 157.498,73.938 "/> <path style="fill:#f00074;" d="M368.828,0.176L144.052,54.738c-4.848,1.164-8.339,5.56-8.339,10.602v195.62 c-6.788-4.073-14.739-6.594-23.273-6.594c-10.602,0-20.622,3.685-28.574,10.214c-7.952-6.594-18.036-10.214-28.574-10.214 c-24.824,0-45.059,20.234-45.059,45.059c0,33.616,55.531,81.261,66.715,90.57c4.719,3.426,9.374,3.297,13.964-0.065 c10.99-9.244,65.293-56.566,66.521-89.406c0-0.259,0.065-155.798,0.065-155.798l202.99-49.196v118.562 c-6.788-4.073-14.739-6.594-23.273-6.594c-10.602,0-20.622,3.685-28.574,10.214c-7.952-6.594-18.036-10.214-28.574-10.214 c-24.824,0-45.059,20.234-45.059,45.059c0,33.616,55.531,81.261,66.715,90.57c5.042,3.491,9.632,3.168,13.964-0.065 c11.119-9.374,66.586-57.665,66.586-90.505V10.843C382.274,3.732,376.327-0.987,368.828,0.176z M256.86,252.75 c0-12.8,10.408-23.273,23.273-23.273c7.887,0,15.127,3.943,19.459,10.537c4.396,6.788,13.705,6.594,18.23,0 c4.331-6.594,11.572-10.537,19.459-10.537c12.8,0,23.273,10.408,23.273,23.273c0,15.192-28.38,46.675-51.846,67.749 C285.175,299.683,256.86,268.394,256.86,252.75z M360.488,73.227l-202.99,49.196V73.873l202.99-49.196V73.227z M32.084,299.554 c0-12.8,10.408-23.273,23.273-23.273c7.887,0,15.127,3.943,19.459,10.537c4.461,6.465,13.899,6.723,18.23,0 c4.331-6.594,11.572-10.537,19.459-10.537c12.8,0,23.273,10.408,23.273,23.273c0,15.192-28.38,46.675-51.846,67.749 C60.335,346.552,32.084,315.263,32.084,299.554z"/> </g>
</svg>